<svg xmlns="http://www.w3.org/2000/svg" viewBox="0 0 128 128">
  <defs>
    <linearGradient id="bg" x1="0%" y1="0%" x2="100%" y2="100%">
      <stop offset="0%" stop-color="#a855f7"/>
      <stop offset="100%" stop-color="#7e22ce"/>
    </linearGradient>
    <linearGradient id="dome" x1="0%" y1="0%" x2="0%" y2="100%">
      <stop offset="0%" stop-color="#ffffff"/>
      <stop offset="100%" stop-color="#e9d5ff"/>
    </linearGradient>
  </defs>
  <!-- Rounded square background -->
  <rect width="128" height="128" rx="24" fill="url(#bg)"/>
  <!-- Duomo dome silhouette -->
  <path d="M64 22 C44 22 30 48 30 62 L30 72 L38 72 L38 92 L50 92 L50 78 L58 78 L58 92 L70 92 L70 78 L78 78 L78 92 L90 92 L90 72 L98 72 L98 62 C98 48 84 22 64 22Z" fill="url(#dome)" opacity="0.95"/>
  <!-- Lantern/cross on top -->
  <rect x="61" y="14" width="6" height="12" rx="2" fill="#fde68a"/>
  <circle cx="64" cy="12" r="4" fill="#fde68a"/>
  <!-- Door -->
  <path d="M56 92 L56 80 Q64 74 72 80 L72 92 Z" fill="#7e22ce" opacity="0.6"/>
  <!-- Windows -->
  <circle cx="52" cy="58" r="4" fill="#c084fc" opacity="0.7"/>
  <circle cx="76" cy="58" r="4" fill="#c084fc" opacity="0.7"/>
  <circle cx="64" cy="46" r="5" fill="#c084fc" opacity="0.7"/>
  <!-- Base line -->
  <rect x="24" y="92" width="80" height="4" rx="2" fill="#ffffff" opacity="0.4"/>
  <!-- Text: F -->
  <text x="64" y="116" font-family="Georgia, serif" font-size="20" font-weight="bold" text-anchor="middle" fill="#fde68a" opacity="0.9">FLORENCE</text>
</svg>
